<svg xmlns="http://www.w3.org/2000/svg" xmlns:xlink="http://www.w3.org/1999/xlink" width="32.001" height="32.001" viewBox="0 0 32.001 32.001">
  <defs>
    <linearGradient id="linear-gradient" x1="-0.049" y1="0.5" x2="0.652" y2="0.5" gradientUnits="objectBoundingBox">
      <stop offset="0" stop-color="#006897"/>
      <stop offset="1" stop-color="#009fb4"/>
    </linearGradient>
  </defs>
  <g id="Grupo_3703" data-name="Grupo 3703" transform="translate(-195.5 -131.5)">
    <path id="Intersección_435" data-name="Intersección 435" d="M-4888.5,23.5a16,16,0,0,1,16-16,16,16,0,0,1,16,16,16,16,0,0,1-16,16A16,16,0,0,1-4888.5,23.5Z" transform="translate(5084 124)" fill="url(#linear-gradient)"/>
    <g id="Grupo_3657" data-name="Grupo 3657" transform="translate(202.241 139.471)">
      <path id="Trazado_3460" data-name="Trazado 3460" d="M249.736,241.032h-2.585L245.939,238h-7.687l-1.213,3.032h-.4v-1.516h-1.819v1.516h-.365A1.456,1.456,0,0,0,233,242.486v8.9a1.466,1.466,0,0,0,1.465,1.465h15.26a1.466,1.466,0,0,0,1.465-1.465v-8.9a1.456,1.456,0,0,0-1.454-1.454Zm-14.311-.91h.606v.91h-.606Zm15.159,11.268a.86.86,0,0,1-.859.859h-15.26a.86.86,0,0,1-.859-.859v-8.9a.849.849,0,0,1,.848-.848h3l1.213-3.032h6.866l1.213,3.032h3a.849.849,0,0,1,.848.848Zm0,0" transform="translate(-233 -238)" fill="#fff" stroke="#fff" stroke-width="0.3"/>
      <path id="Trazado_3461" data-name="Trazado 3461" d="M247.457,244.75a5.457,5.457,0,1,0,5.457,5.457,5.463,5.463,0,0,0-5.457-5.457Zm0,10.308a4.851,4.851,0,1,1,4.851-4.851,4.856,4.856,0,0,1-4.851,4.851Zm0,0" transform="translate(-238.362 -242.021)" fill="#fff" stroke="#fff" stroke-width="0.3"/>
      <path id="Trazado_3462" data-name="Trazado 3462" d="M250.138,249.25a3.638,3.638,0,1,0,3.638,3.638,3.643,3.643,0,0,0-3.638-3.638Zm0,6.67a3.032,3.032,0,1,1,3.032-3.032,3.035,3.035,0,0,1-3.032,3.032Zm0,0" transform="translate(-241.043 -244.702)" fill="#fff" stroke="#fff" stroke-width="0.3"/>
      <path id="Trazado_3463" data-name="Trazado 3463" d="M270.213,248.5a1.213,1.213,0,1,0,1.213,1.213,1.213,1.213,0,0,0-1.213-1.213Zm0,1.819a.606.606,0,1,1,.606-.606.607.607,0,0,1-.606.606Zm0,0" transform="translate(-254.447 -244.255)" fill="#fff" stroke="#fff" stroke-width="0.3"/>
    </g>
  </g>
</svg>
