<svg xmlns="http://www.w3.org/2000/svg" width="32" height="32" viewBox="0 0 32 32">
  <g id="Grupo_3700" data-name="Grupo 3700" transform="translate(-316 -417)">
    <circle id="Elipse_7" data-name="Elipse 7" cx="16" cy="16" r="16" transform="translate(316 417)" fill="#0092ad"/>
    <path id="star" d="M12.748,6.7a.935.935,0,0,0-.518-1.594L9.075,4.653a.412.412,0,0,1-.311-.226L7.354,1.568a.935.935,0,0,0-1.676,0L4.266,4.427a.413.413,0,0,1-.311.226L.8,5.111A.935.935,0,0,0,.282,6.7L2.565,8.931a.413.413,0,0,1,.119.365l-.539,3.142a.915.915,0,0,0,.2.758.944.944,0,0,0,1.152.227L6.323,11.94a.422.422,0,0,1,.384,0L9.53,13.424a.925.925,0,0,0,.435.109.937.937,0,0,0,.717-.336.915.915,0,0,0,.2-.758L10.346,9.3a.413.413,0,0,1,.119-.365Z" transform="translate(325 424.952)" fill="none" stroke="#fff" stroke-width="1"/>
  </g>
</svg>
