<svg xmlns="http://www.w3.org/2000/svg" width="28.591" height="23.73" viewBox="0 0 28.591 23.73">
  <path id="Intersección_355" data-name="Intersección 355" d="M6.5,23.73A6.5,6.5,0,0,1,0,17.244V7.225a.419.419,0,0,1,.838,0V17.244a5.662,5.662,0,0,0,5.66,5.65H17.276a5.642,5.642,0,0,0,4.783-2.628.419.419,0,0,1,.707.448,6.477,6.477,0,0,1-5.491,3.016ZM8.07,20.484a1.741,1.741,0,0,1-.342-2.011L8.92,16a9.408,9.408,0,0,1,1.831-2.576l2.6-2.593h-8a.419.419,0,1,1,0-.837h8.834l2.008-2H5.353a.418.418,0,1,1,0-.836H17.033l4.453-4.445A5.628,5.628,0,0,0,17.276.836H6.5A5.662,5.662,0,0,0,.964,5.293a.419.419,0,0,1-.409.33.428.428,0,0,1-.089-.009.418.418,0,0,1-.321-.5A6.5,6.5,0,0,1,6.5,0H17.276a6.464,6.464,0,0,1,4.8,2.119L23.594.606a2.077,2.077,0,0,1,2.93,0l1.46,1.457a2.068,2.068,0,0,1,0,2.926l-3.046,3.04h0L23.774,9.192v8.052a6.509,6.509,0,0,1-.187,1.553.419.419,0,0,1-.407.319.428.428,0,0,1-.1-.013.417.417,0,0,1-.307-.5,5.65,5.65,0,0,0,.163-1.354V10.028l-7.794,7.78a9.431,9.431,0,0,1-2.58,1.827l-1.274.613h0l-1.2.577A1.772,1.772,0,0,1,9.311,21,1.753,1.753,0,0,1,8.07,20.484Zm.413-1.648a.926.926,0,0,0,1.238,1.236l.734-.353a10.433,10.433,0,0,0-.764-.852,10.289,10.289,0,0,0-.855-.763Zm1.192-2.471-.466.967a11.346,11.346,0,0,1,1.075.944,11.118,11.118,0,0,1,.945,1.073l.969-.466a8.588,8.588,0,0,0,1.849-1.2L10.88,14.518A8.582,8.582,0,0,0,9.675,16.365Zm1.778-2.457,3.206,3.2L24.05,7.734l-3.206-3.2Zm9.983-9.965,3.206,3.2,1.034-1.031-3.206-3.2ZM24.187,1.2,23.063,2.319l3.206,3.2L27.392,4.4a1.233,1.233,0,0,0,0-1.743L25.933,1.2a1.239,1.239,0,0,0-1.746,0Zm-8.425,11.61a.417.417,0,0,1,0-.591l3.193-3.188a.418.418,0,1,1,.592.591l-3.193,3.188a.419.419,0,0,1-.592,0ZM5.353,5.152a.418.418,0,1,1,0-.836H18.42a.418.418,0,1,1,0,.836Z"/>
</svg>
