<svg xmlns="http://www.w3.org/2000/svg" width="19.147" height="24.24" viewBox="0 0 19.147 24.24">
  <path id="bell" d="M72.182,19.252A3.759,3.759,0,0,1,71.04,17.7a18,18,0,0,1-1.191-7.112c0-.009,0-.019,0-.027a6.865,6.865,0,0,0-4.041-6.225V2.7A2.7,2.7,0,0,0,63.118,0h-.223A2.7,2.7,0,0,0,60.2,2.7V4.332a6.865,6.865,0,0,0-4.041,6.253A18,18,0,0,1,54.972,17.7a3.759,3.759,0,0,1-1.143,1.556.689.689,0,0,0-.379.783.721.721,0,0,0,.71.554h5.195a3.649,3.649,0,1,0,7.3,0h5.194a.721.721,0,0,0,.71-.554.689.689,0,0,0-.377-.784ZM61.622,2.7A1.276,1.276,0,0,1,62.9,1.42h.223A1.276,1.276,0,0,1,64.392,2.7V3.873a6.865,6.865,0,0,0-2.769,0V2.7Zm1.385,20.075a2.237,2.237,0,0,1-2.232-2.181h4.464a2.237,2.237,0,0,1-2.232,2.184Zm2.854-3.6H55.777a7.43,7.43,0,0,0,.372-.652,17.945,17.945,0,0,0,1.432-7.933,5.426,5.426,0,0,1,10.851,0v.026a17.913,17.913,0,0,0,1.432,7.9,7.436,7.436,0,0,0,.372.652Z" transform="translate(-53.432)"/>
</svg>
