<svg xmlns="http://www.w3.org/2000/svg" width="14.287" height="17.454" viewBox="0 0 14.287 17.454">
  <g id="test" transform="translate(-46.443)">
    <path id="Trazado_3754" data-name="Trazado 3754" d="M46.443,0V17.454H60.73V0ZM59.708,16.431H47.466V1.023H50.53v2.4h6.113v-2.4h3.064ZM55.621,1.023V2.4H51.553V1.023Z" transform="translate(0)"/>
    <path id="Trazado_3755" data-name="Trazado 3755" d="M194.832,155.667H201.1v1.023h-6.267Z" transform="translate(-143.33 -150.36)"/>
    <path id="Trazado_3756" data-name="Trazado 3756" d="M133.333,155.667h1.074v1.023h-1.074Z" transform="translate(-83.928 -150.36)"/>
    <path id="Trazado_3757" data-name="Trazado 3757" d="M194.832,219.667H201.1v1.023h-6.267Z" transform="translate(-143.33 -212.179)"/>
    <path id="Trazado_3758" data-name="Trazado 3758" d="M133.333,219.667h1.074v1.023h-1.074Z" transform="translate(-83.928 -212.179)"/>
    <path id="Trazado_3759" data-name="Trazado 3759" d="M133.333,283.667h1.074v1.023h-1.074Z" transform="translate(-83.928 -273.997)"/>
    <path id="Trazado_3760" data-name="Trazado 3760" d="M194.832,283.667H201.1v1.023h-6.267Z" transform="translate(-143.33 -273.997)"/>
    <path id="Trazado_3761" data-name="Trazado 3761" d="M133.333,379.667h2.727v1.023h-2.727Z" transform="translate(-83.928 -366.724)"/>
    <path id="Trazado_3762" data-name="Trazado 3762" d="M257.512,353.516l-.729-.729-.723.723,1.452,1.452,2.18-2.18-.723-.723Z" transform="translate(-202.471 -340.058)"/>
  </g>
</svg>
