<svg xmlns="http://www.w3.org/2000/svg" width="145" height="113.185" viewBox="0 0 145 113.185">
  <g id="Grupo_2221" data-name="Grupo 2221" transform="translate(-115.58 -74)">
    <g id="Grupo_2219" data-name="Grupo 2219" transform="translate(-1236 -768)">
      <g id="_001-cardiogram" data-name="001-cardiogram" transform="translate(1409.408 842)">
        <path id="Trazado_1979" data-name="Trazado 1979" d="M19.423,135.129h-.214a1.271,1.271,0,0,1-.941-.727L13.99,124.69l-2.653,4.321a1.241,1.241,0,0,1-1.112.6H1.283a1.283,1.283,0,1,1,0-2.567H9.5l3.551-5.818a1.254,1.254,0,0,1,1.2-.6,1.279,1.279,0,0,1,1.07.77l4.492,10.182,3.893-4.107a1.327,1.327,0,0,1,.941-.385H35a1.283,1.283,0,0,1,0,2.567H25.2l-4.834,5.091A1.327,1.327,0,0,1,19.423,135.129Z" transform="translate(0 -112.583)" fill="#18e4db"/>
        <path id="Trazado_1980" data-name="Trazado 1980" d="M28.194,56.135a1.38,1.38,0,0,1-.9-.342L15.915,44.8a1.271,1.271,0,1,1,1.754-1.84L28.151,53.1,41.37,40.306a9.095,9.095,0,0,0-.043-12.621A7.367,7.367,0,0,0,36.023,25.5H35.98A9.753,9.753,0,0,0,29.092,28.5a1.319,1.319,0,0,1-1.925,0c-2.353-2.225-4.407-3.38-6.118-3.38a8.372,8.372,0,0,0-6.118,2.61,8.912,8.912,0,0,0-2.4,4.62,1.3,1.3,0,0,1-1.5,1.027,1.44,1.44,0,0,1-.984-1.626,11.571,11.571,0,0,1,3.08-5.9,10.86,10.86,0,0,1,7.958-3.38c2.182,0,4.492,1.112,7.1,3.38a12.4,12.4,0,0,1,7.872-2.952h.043a10.026,10.026,0,0,1,7.145,2.952,11.676,11.676,0,0,1,0,16.257L29.092,55.793A1.381,1.381,0,0,1,28.194,56.135Z" transform="translate(-9.198 -22.466)" fill="#18e4db"/>
      </g>
      <g id="Grupo_2220" data-name="Grupo 2220" transform="translate(1387.143 880.14)">
        <g id="Grupo_2217" data-name="Grupo 2217">
          <path id="Trazado_1995" data-name="Trazado 1995" d="M72.019,234.464c-2.279-1.545-4.964-1.107-7.343.266s-16.032,13.047-16.032,13.047l-13.44,0a1.47,1.47,0,0,1-1.3-1.326,1.33,1.33,0,0,1,1.3-1.3h8.223c2.878,0,6.1-1.875,6.1-5.209,0-3.542-3.222-5.209-6.1-5.209-4.993,0-5.965.021-5.965.021a12.1,12.1,0,0,1-5.592-.956,15.422,15.422,0,0,0-7.048-1.672,15.05,15.05,0,0,0-10.8,4.423L0,250.358l15.628,15.628,5.209-5.209H47.215a10.723,10.723,0,0,0,7.121-2.706L72.2,238.035A2.283,2.283,0,0,0,72.019,234.464ZM52.5,256.21a8.111,8.111,0,0,1-5.285,1.959l-27.638.005L15.628,262.3,3.7,250.371l12.192-12a12.492,12.492,0,0,1,8.931-3.636,12.917,12.917,0,0,1,5.819,1.357,14.328,14.328,0,0,0,6.822,1.266s1-.021,5.965-.021c.034,0,3.5.029,3.5,2.6,0,1.776-2.086,2.6-3.5,2.6H34.988a3.911,3.911,0,0,0,0,7.814l14.581,0s15.341-12.789,16.579-13.466a4.453,4.453,0,0,1,4.022-.5Z" transform="translate(0 -232.125)" fill="#fff"/>
        </g>
      </g>
    </g>
    <text id="MediApp" transform="translate(115.58 156.185)" fill="#fff" font-size="21" font-family="Poppins-SemiBold, Poppins" font-weight="600"><tspan x="24.723" y="22">Medi</tspan><tspan y="22" fill="#18e4db">App</tspan></text>
  </g>
</svg>
