<svg xmlns="http://www.w3.org/2000/svg" xmlns:xlink="http://www.w3.org/1999/xlink" width="16" height="16" viewBox="0 0 16 16">
  <defs>
    <clipPath id="clip-path">
      <rect id="Rectángulo_30" data-name="Rectángulo 30" width="16" height="16" fill="#007d8e"/>
    </clipPath>
  </defs>
  <g id="Grupo_2273" data-name="Grupo 2273" transform="translate(-2 -5)">
    <g id="Grupo_2084" data-name="Grupo 2084" transform="translate(2 5)">
      <g id="Grupo_2083" data-name="Grupo 2083" clip-path="url(#clip-path)">
        <path id="Trazado_1946" data-name="Trazado 1946" d="M-231.967,180.093l-3.841-3.841a6.709,6.709,0,0,0,1.526-4.269,6.736,6.736,0,0,0-6.734-6.734,6.734,6.734,0,0,0-6.734,6.734,6.734,6.734,0,0,0,6.734,6.734,6.7,6.7,0,0,0,4.265-1.523l3.841,3.838a.665.665,0,0,0,.942,0,.661.661,0,0,0,0-.939Zm-9.049-2.716a5.4,5.4,0,0,1-5.4-5.394,5.4,5.4,0,0,1,5.4-5.4,5.405,5.405,0,0,1,5.4,5.4,5.4,5.4,0,0,1-5.4,5.394Zm0,0" transform="translate(247.761 -165.239)" fill="#007d8e"/>
      </g>
    </g>
  </g>
</svg>
