<svg xmlns="http://www.w3.org/2000/svg" xmlns:xlink="http://www.w3.org/1999/xlink" width="19.988" height="15.226" viewBox="0 0 19.988 15.226">
  <defs>
    <linearGradient id="linear-gradient" x1="-0.049" y1="0.5" x2="0.652" y2="0.5" gradientUnits="objectBoundingBox">
      <stop offset="0" stop-color="#006897"/>
      <stop offset="1" stop-color="#009fb4"/>
    </linearGradient>
  </defs>
  <path id="Intersección_394" data-name="Intersección 394" d="M-2654.652,23.055h-5.294l1.12-1.679a5.635,5.635,0,0,0,.95-3.14V15.1a4.922,4.922,0,0,1,4.28-4.889V9h1.171v1.2a4.838,4.838,0,0,1,2.875,1.391,4.849,4.849,0,0,1,1.436,3.457v3.183a5.64,5.64,0,0,0,.95,3.14l1.119,1.679h-5.294A1.759,1.759,0,0,1-2653,24.227,1.76,1.76,0,0,1-2654.652,23.055ZM-2656.7,15.1v3.137a6.81,6.81,0,0,1-1.056,3.649h9.529a6.8,6.8,0,0,1-1.057-3.649V15.053a3.685,3.685,0,0,0-1.09-2.627,3.682,3.682,0,0,0-2.618-1.082h-.013A3.739,3.739,0,0,0-2656.7,15.1Zm11.266,4.639a4.464,4.464,0,0,0,1.265-3.124,4.461,4.461,0,0,0-1.315-3.175l.828-.828a5.624,5.624,0,0,1,1.658,4,5.625,5.625,0,0,1-1.6,3.939Zm-17.552-3.124a5.624,5.624,0,0,1,1.658-4l.828.828a4.461,4.461,0,0,0-1.315,3.175,4.465,4.465,0,0,0,1.266,3.124l-.841.815A5.633,5.633,0,0,1-2662.989,16.614Zm15.863,1.5a2.135,2.135,0,0,0,.612-1.5,2.133,2.133,0,0,0-.629-1.518l.828-.828a3.293,3.293,0,0,1,.972,2.346,3.3,3.3,0,0,1-.946,2.32Zm-13.521-1.5a3.3,3.3,0,0,1,.972-2.346l.829.828a2.133,2.133,0,0,0-.63,1.518,2.135,2.135,0,0,0,.612,1.5l-.837.819A3.3,3.3,0,0,1-2660.647,16.613Z" transform="translate(2662.989 -9.001)" fill="url(#linear-gradient)"/>
</svg>
