<svg xmlns="http://www.w3.org/2000/svg" xmlns:xlink="http://www.w3.org/1999/xlink" width="77" height="77" viewBox="0 0 77 77">
  <defs>
    <filter id="Intersecci贸n_352" x="0" y="0" width="77" height="77" filterUnits="userSpaceOnUse">
      <feOffset dy="3" input="SourceAlpha"/>
      <feGaussianBlur stdDeviation="3" result="blur"/>
      <feFlood flood-opacity="0.2"/>
      <feComposite operator="in" in2="blur"/>
      <feComposite in="SourceGraphic"/>
    </filter>
  </defs>
  <g id="Grupo_3701" data-name="Grupo 3701" transform="translate(-287 -720)">
    <g transform="matrix(1, 0, 0, 1, 287, 720)" filter="url(#Intersecci贸n_352)">
      <path id="Intersecci贸n_352-2" data-name="Intersecci贸n 352" d="M17,38.5A29.5,29.5,0,1,1,46.5,68,29.5,29.5,0,0,1,17,38.5Z" transform="translate(-8 -3)" fill="#00bcc1"/>
    </g>
    <path id="Trazado_3663" data-name="Trazado 3663" d="M40.148,30.241c-1.69-.939-3.13-1.88-4.18-2.567-.8-.524-1.382-.9-1.807-1.115a2.08,2.08,0,0,0-2.43.172.915.915,0,0,0-.114.139c-1.233,1.851-2.844,3.621-3.316,3.716a22.048,22.048,0,0,1-5.63-3.645c-2.588-2.156-4.216-4.221-4.455-5.628,1.66-1.709,2.258-2.784,2.258-4.007,0-1.261-2.941-6.525-3.473-7.057s-1.736-.616-3.574-.25a.925.925,0,0,0-.468.25c-.223.223-5.429,5.531-2.955,11.964,2.716,7.061,9.687,15.268,18.574,16.6a19.259,19.259,0,0,0,2.843.226c5.229,0,8.314-2.631,9.183-7.849A.912.912,0,0,0,40.148,30.241ZM28.851,37c-9.4-1.409-15.318-10.721-17.137-15.447-1.8-4.688,1.523-8.868,2.358-9.813a6.907,6.907,0,0,1,1.693-.117,32.886,32.886,0,0,1,2.878,5.681c0,.481-.157,1.15-2.021,3.015a.912.912,0,0,0-.268.647c0,4.794,10.113,11.446,11.9,11.446,1.558,0,3.589-2.618,4.745-4.324a.869.869,0,0,1,.34.106c.33.166.9.538,1.623,1.011.954.624,2.221,1.451,3.718,2.309C38,34.787,36.105,38.093,28.851,37Z" transform="translate(300.881 729.642)" fill="#fff"/>
  </g>
</svg>
