<svg xmlns="http://www.w3.org/2000/svg" xmlns:xlink="http://www.w3.org/1999/xlink" width="18" height="18" viewBox="0 0 18 18">
  <defs>
    <linearGradient id="linear-gradient" x1="-0.049" y1="0.5" x2="0.652" y2="0.5" gradientUnits="objectBoundingBox">
      <stop offset="0" stop-color="#006897"/>
      <stop offset="1" stop-color="#009fb4"/>
    </linearGradient>
  </defs>
  <path id="Intersección_424" data-name="Intersección 424" d="M-3552,16a9,9,0,0,1,9-9,9.01,9.01,0,0,1,9,9,9,9,0,0,1-9,9A9,9,0,0,1-3552,16Zm1.969,0A7.033,7.033,0,0,0-3543,23.035,7.04,7.04,0,0,0-3535.965,16,7.033,7.033,0,0,0-3543,8.969,7.033,7.033,0,0,0-3550.03,16Zm9.346,3.705-2.839-2.84a.758.758,0,0,1-.221-.577V12.239a.762.762,0,0,1,.762-.762.762.762,0,0,1,.761.762v3.773l2.615,2.615a.762.762,0,0,1,0,1.079.76.76,0,0,1-.54.223A.757.757,0,0,1-3540.684,19.706Z" transform="translate(3552 -7)" fill="url(#linear-gradient)"/>
</svg>
