<svg id="Grupo_2202" data-name="Grupo 2202" xmlns="http://www.w3.org/2000/svg" width="18.356" height="13.049" viewBox="0 0 18.356 13.049">
  <g id="Grupo_2066" data-name="Grupo 2066">
    <path id="Trazado_1924" data-name="Trazado 1924" d="M80.687,259.724a.3.3,0,0,1-.2-.08l-3.407-3.2a.3.3,0,1,1,.407-.428l3.407,3.193a.3.3,0,0,1,.012.421.294.294,0,0,1-.216.092Zm0,0" transform="translate(-65.825 -249.647)" fill="#005e94"/>
    <path id="Trazado_1925" data-name="Trazado 1925" d="M71.316,259.724a.3.3,0,0,1-.2-.513l3.407-3.193a.3.3,0,0,1,.419.012.291.291,0,0,1-.012.417l-3.407,3.2a.3.3,0,0,1-.2.08Zm0,0" transform="translate(-67.823 -249.646)" fill="#005e94"/>
    <path id="Trazado_1926" data-name="Trazado 1926" d="M85.5,264.274H70.1a1.482,1.482,0,0,1-1.479-1.479V252.7a1.48,1.48,0,0,1,1.479-1.479H85.5a1.48,1.48,0,0,1,1.479,1.479V262.8a1.482,1.482,0,0,1-1.479,1.479ZM70.1,251.816a.888.888,0,0,0-.888.888V262.8a.89.89,0,0,0,.888.888H85.5a.89.89,0,0,0,.888-.888V252.7a.888.888,0,0,0-.888-.888Zm0,0" transform="translate(-68.625 -251.225)" fill="#005e94"/>
    <path id="Trazado_1927" data-name="Trazado 1927" d="M77.705,259.117a1.638,1.638,0,0,1-1.085-.393l-7.6-6.628a.3.3,0,0,1-.028-.419.3.3,0,0,1,.419-.028l7.6,6.628a1.106,1.106,0,0,0,1.394,0L86,251.658a.3.3,0,0,1,.415.031.293.293,0,0,1-.027.417l-7.591,6.619a1.65,1.65,0,0,1-1.088.393Zm0,0" transform="translate(-68.527 -251.107)" fill="#005e94"/>
  </g>
</svg>
