<svg xmlns="http://www.w3.org/2000/svg" width="32" height="32" viewBox="0 0 32 32">
  <g id="Grupo_3699" data-name="Grupo 3699" transform="translate(-274 -417)">
    <circle id="Elipse_6" data-name="Elipse 6" cx="16" cy="16" r="16" transform="translate(274 417)" fill="#0092ad"/>
    <path id="_001-share" data-name="001-share" d="M13.667,6.83,7.436,0V4.091H6.715A6.712,6.712,0,0,0,0,10.8v2.865l1.2-1.307A8.582,8.582,0,0,1,7.435,9.571v4.091ZM.8,11.608V10.8A5.91,5.91,0,0,1,6.714,4.892H8.239V2.067L12.585,6.83,8.237,11.593V8.768H7.518A9.385,9.385,0,0,0,.8,11.608Zm0,0" transform="translate(283 424)" fill="#fff"/>
  </g>
</svg>
