<svg xmlns="http://www.w3.org/2000/svg" xmlns:xlink="http://www.w3.org/1999/xlink" width="40.999" height="40.999" viewBox="0 0 40.999 40.999">
  <defs>
    <linearGradient id="linear-gradient" x1="-0.049" y1="0.5" x2="0.652" y2="0.5" gradientUnits="objectBoundingBox">
      <stop offset="0" stop-color="#006897"/>
      <stop offset="1" stop-color="#009fb4"/>
    </linearGradient>
    <filter id="Intersecci贸n_484" x="0" y="0" width="40.999" height="40.999" filterUnits="userSpaceOnUse">
      <feOffset dy="2" input="SourceAlpha"/>
      <feGaussianBlur stdDeviation="1" result="blur"/>
      <feFlood flood-opacity="0.161"/>
      <feComposite operator="in" in2="blur"/>
      <feComposite in="SourceGraphic"/>
    </filter>
  </defs>
  <g id="Grupo_3697" data-name="Grupo 3697" transform="translate(-308.5 -104.501)">
    <g transform="matrix(1, 0, 0, 1, 308.5, 104.5)" filter="url(#Intersecci贸n_484)">
      <path id="Intersecci贸n_484-2" data-name="Intersecci贸n 484" d="M-4888.5,25A17.5,17.5,0,0,1-4871,7.5,17.5,17.5,0,0,1-4853.5,25,17.5,17.5,0,0,1-4871,42.5,17.5,17.5,0,0,1-4888.5,25Z" transform="translate(4891.5 -6.5)" fill="url(#linear-gradient)"/>
    </g>
    <path id="Trazado_3663" data-name="Trazado 3663" d="M27.442,21.8c-.993-.551-1.839-1.1-2.456-1.508-.471-.308-.812-.53-1.062-.655a1.222,1.222,0,0,0-1.428.1.538.538,0,0,0-.067.082A7.563,7.563,0,0,1,20.481,22a12.955,12.955,0,0,1-3.308-2.142c-1.52-1.267-2.477-2.48-2.617-3.307.975-1,1.327-1.636,1.327-2.354a15.226,15.226,0,0,0-2.041-4.147c-.314-.313-1.02-.362-2.1-.147a.543.543,0,0,0-.275.147c-.131.131-3.19,3.25-1.736,7.03,1.6,4.149,5.692,8.971,10.914,9.754a11.316,11.316,0,0,0,1.671.133c3.072,0,4.885-1.546,5.4-4.612A.536.536,0,0,0,27.442,21.8ZM20.8,25.774c-5.522-.828-9-6.3-10.069-9.076-1.06-2.755.895-5.211,1.385-5.766a4.058,4.058,0,0,1,.995-.069A19.323,19.323,0,0,1,14.806,14.2c0,.282-.092.676-1.187,1.772a.536.536,0,0,0-.158.38c0,2.817,5.942,6.725,6.994,6.725.915,0,2.109-1.538,2.788-2.541a.51.51,0,0,1,.2.062c.194.1.529.316.954.594.561.366,1.305.853,2.184,1.357C26.182,24.471,25.066,26.414,20.8,25.774Z" transform="translate(311.017 104.108)" fill="#fff"/>
  </g>
</svg>
