<svg xmlns="http://www.w3.org/2000/svg" width="15.665" height="15.667" viewBox="0 0 15.665 15.667">
  <path id="_001-home" data-name="001-home" d="M15.744,6.814h0L9.352.422a1.442,1.442,0,0,0-2.04,0L.925,6.809l-.006.007a1.442,1.442,0,0,0,.96,2.457l.045,0h.255v4.7a1.69,1.69,0,0,0,1.688,1.688h2.5a.459.459,0,0,0,.459-.459V11.52a.771.771,0,0,1,.77-.77H9.07a.771.771,0,0,1,.77.77v3.687a.459.459,0,0,0,.459.459h2.5a1.69,1.69,0,0,0,1.688-1.688v-4.7h.236a1.443,1.443,0,0,0,1.021-2.462Zm-.65,1.39a.521.521,0,0,1-.371.154h-.7a.459.459,0,0,0-.459.459v5.162a.771.771,0,0,1-.77.77H10.758V11.52A1.69,1.69,0,0,0,9.07,9.832H7.6A1.69,1.69,0,0,0,5.907,11.52v3.228H3.866a.771.771,0,0,1-.77-.77V8.816a.459.459,0,0,0-.459-.459h-.7a.524.524,0,0,1-.361-.894h0l6.391-6.39a.524.524,0,0,1,.741,0L15.092,7.46l0,0a.525.525,0,0,1,0,.741Zm0,0" transform="translate(-0.5 0.001)"/>
</svg>
