<svg xmlns="http://www.w3.org/2000/svg" width="20.225" height="15.559" viewBox="0 0 20.225 15.559">
  <g id="Grupo_3655" data-name="Grupo 3655" transform="translate(-1245.5 -505.36)">
    <g id="Grupo_298" data-name="Grupo 298" transform="translate(1246 505.86)">
      <path id="Trazado_433" data-name="Trazado 433" d="M1246,508.288v9.7a2.433,2.433,0,0,0,2.428,2.428h7.842a2.433,2.433,0,0,0,2.428-2.428V516.42a.481.481,0,1,0-.962,0v1.571a1.473,1.473,0,0,1-1.469,1.47h-7.838a1.474,1.474,0,0,1-1.47-1.47v-9.7a1.474,1.474,0,0,1,1.47-1.47h7.842a1.473,1.473,0,0,1,1.469,1.47v1.572a.481.481,0,0,0,.962,0v-1.572a2.433,2.433,0,0,0-2.428-2.428h-7.845a2.431,2.431,0,0,0-2.428,2.428Zm0,0" transform="translate(-1246 -505.86)" fill="#4b44ce" stroke="#4b44ce" stroke-width="1"/>
      <path id="Trazado_434" data-name="Trazado 434" d="M1261.591,516.985a.483.483,0,0,0,.68,0l3.28-3.281a.476.476,0,0,0,0-.676l-3.28-3.28a.478.478,0,1,0-.676.676l2.463,2.463h-8.987a.481.481,0,1,0,0,.961h8.983l-2.463,2.463a.473.473,0,0,0,0,.673Zm0,0" transform="translate(-1246.525 -506.089)" fill="#4b44ce" stroke="#4b44ce" stroke-width="1"/>
    </g>
  </g>
</svg>
