<svg xmlns="http://www.w3.org/2000/svg" xmlns:xlink="http://www.w3.org/1999/xlink" width="18.5" height="18.5" viewBox="0 0 18.5 18.5">
  <defs>
    <linearGradient id="linear-gradient" x1="-0.049" y1="0.5" x2="0.652" y2="0.5" gradientUnits="objectBoundingBox">
      <stop offset="0" stop-color="#006897"/>
      <stop offset="1" stop-color="#009fb4"/>
    </linearGradient>
  </defs>
  <path id="Intersección_430" data-name="Intersección 430" d="M-3989.432,21.5a.362.362,0,0,1-.362-.362.361.361,0,0,1,.362-.361h.025a.742.742,0,0,0,.741-.741.742.742,0,0,0-.741-.741h-.411a9.313,9.313,0,0,1-.588,1.967l-.007.017a.363.363,0,0,1-.332.22h0a.36.36,0,0,1-.332-.219,9.362,9.362,0,0,1-.6-1.985h-1a1.73,1.73,0,0,1-1.728-1.729,1.729,1.729,0,0,1,1.728-1.728h.849V12.611h-.325a1.616,1.616,0,0,0-1.613,1.614,1.618,1.618,0,0,0,.2.777.362.362,0,0,1-.143.491.361.361,0,0,1-.174.045.361.361,0,0,1-.317-.188,2.341,2.341,0,0,1-.288-1.126,2.339,2.339,0,0,1,2.336-2.337h.325V10.6a4.1,4.1,0,0,1-2.679.988,4.149,4.149,0,0,1-3.3-1.654l-.34-.454a2.8,2.8,0,0,1-1.067-2.164A2.912,2.912,0,0,1-4000,5.337a.361.361,0,0,1,.14-.285.362.362,0,0,1,.311-.065l1.72.437a3.415,3.415,0,0,0,.844.106h2.524a1.636,1.636,0,0,1,1.625,1.4.915.915,0,0,0,.911.782h.093V6.954a2.128,2.128,0,0,1-1.041-1.828A2.128,2.128,0,0,1-3990.749,3a2.128,2.128,0,0,1,2.126,2.126,2.129,2.129,0,0,1-1.042,1.828v.754h.092a.916.916,0,0,0,.911-.782,1.636,1.636,0,0,1,1.625-1.4h2.523a3.429,3.429,0,0,0,.845-.106l1.72-.437a.362.362,0,0,1,.311.065.363.363,0,0,1,.14.285,2.912,2.912,0,0,1-.775,1.979,2.8,2.8,0,0,1-1.068,2.164l-.339.454a4.151,4.151,0,0,1-3.3,1.654,4.1,4.1,0,0,1-2.679-.988v1.288h.241a2.339,2.339,0,0,1,2.336,2.337,2.339,2.339,0,0,1-2.336,2.337h-.241v1.052a9.215,9.215,0,0,1-.049.959h.309a1.465,1.465,0,0,1,1.463,1.463,1.465,1.465,0,0,1-1.463,1.463Zm-1.679-3.907a8.6,8.6,0,0,0,.364,2.486,8.549,8.549,0,0,0,.359-2.464V16.562h-.723Zm-2.578-.026a1.008,1.008,0,0,0,1.006,1.006h.9a9.338,9.338,0,0,1-.051-.98V16.562h-.849A1.007,1.007,0,0,0-3993.689,17.567Zm4.023-1.728h.241a1.616,1.616,0,0,0,1.613-1.614,1.616,1.616,0,0,0-1.613-1.614h-.241Zm-1.445,0h.723V7.22a2.142,2.142,0,0,1-.361.031,2.141,2.141,0,0,1-.362-.031Zm1.445-6.24.286.283a3.385,3.385,0,0,0,2.393.983,3.42,3.42,0,0,0,2.187-.8c-.091.009-.182.013-.275.013h-.6a.361.361,0,0,1-.361-.362.361.361,0,0,1,.361-.361h.6a2.082,2.082,0,0,0,1.97-1.416,2.893,2.893,0,0,1-1.316.314h-.747a.36.36,0,0,1-.362-.361.361.361,0,0,1,.362-.361h.747a2.2,2.2,0,0,0,2.145-1.72l-1.215.31a4.144,4.144,0,0,1-1.024.128h-2.523a.917.917,0,0,0-.911.783,1.634,1.634,0,0,1-1.625,1.4h-.092Zm-4.847,1.266a3.392,3.392,0,0,0,2.394-.983l.285-.283V8.43h-.093a1.634,1.634,0,0,1-1.625-1.4.917.917,0,0,0-.91-.783h-2.524a4.123,4.123,0,0,1-1.022-.128l-1.217-.31a2.2,2.2,0,0,0,2.146,1.72h.747a.359.359,0,0,1,.361.361.36.36,0,0,1-.361.361h-.747a2.9,2.9,0,0,1-1.316-.314,2.082,2.082,0,0,0,1.97,1.416h.6a.362.362,0,0,1,.362.361.362.362,0,0,1-.362.362h-.6c-.093,0-.185,0-.275-.013A3.419,3.419,0,0,0-3994.513,10.866Zm2.361-5.74a1.4,1.4,0,0,0,1.4,1.4,1.4,1.4,0,0,0,1.4-1.4,1.4,1.4,0,0,0-1.4-1.4A1.4,1.4,0,0,0-3992.152,5.126Zm-.3,16.269a.364.364,0,0,1-.105-.256.36.36,0,0,1,.105-.254.363.363,0,0,1,.255-.107.362.362,0,0,1,.255.107.362.362,0,0,1,.106.254.366.366,0,0,1-.106.256.361.361,0,0,1-.255.106A.363.363,0,0,1-3992.451,21.395Z" transform="translate(4000 -3)" fill="url(#linear-gradient)"/>
</svg>
