<svg xmlns="http://www.w3.org/2000/svg" xmlns:xlink="http://www.w3.org/1999/xlink" width="33.557" height="34.222" viewBox="0 0 33.557 34.222">
  <defs>
    <linearGradient id="linear-gradient" x1="-0.049" y1="0.5" x2="0.652" y2="0.5" gradientUnits="objectBoundingBox">
      <stop offset="0" stop-color="#006897"/>
      <stop offset="1" stop-color="#009fb4"/>
    </linearGradient>
  </defs>
  <path id="Intersección_347" data-name="Intersección 347" d="M-1764.6,41.452a.82.82,0,0,1-.82-.82v-3.5a7.625,7.625,0,0,1,6.923-7.583.884.884,0,0,1,.181-.03,5.241,5.241,0,0,1-1.452-3.622V21.877a4.206,4.206,0,0,1,4.2-4.2h5.5a.82.82,0,0,1,.82.82v2.731c0,.078,0,.158-.009.235a.806.806,0,0,1,.009.116v4.315a5.241,5.241,0,0,1-1.452,3.622.884.884,0,0,1,.181.03,7.626,7.626,0,0,1,6.923,7.583v3.5a.82.82,0,0,1-.82.82Zm.821-1.64h18.545V37.129a5.982,5.982,0,0,0-5.218-5.925l-3.475,3.475a.821.821,0,0,1-.58.24.82.82,0,0,1-.58-.24l-3.475-3.475a5.984,5.984,0,0,0-5.188,5.328h3.373a.821.821,0,0,1,.821.82.822.822,0,0,1-.821.821h-3.4Zm9.272-6.873,1.786-1.785h-3.57Zm-3.62-7.046a3.624,3.624,0,0,0,3.62,3.621,3.625,3.625,0,0,0,3.622-3.621V24.125a3.367,3.367,0,0,1-1.744.485h-5.5Zm0-4.016V22.97h5.5a1.746,1.746,0,0,0,1.744-1.743v-1.91h-4.681A2.564,2.564,0,0,0-1758.132,21.877Zm16.07,4.973a.66.66,0,0,1-.407-.609V22.662h-4.963a.66.66,0,0,1-.66-.66.66.66,0,0,1,.66-.66h5.621a.659.659,0,0,1,.66.66v2.647l3.116-3.113a.657.657,0,0,1,.466-.194h2.4a1.981,1.981,0,0,0,1.979-1.978V10.528a1.981,1.981,0,0,0-1.979-1.978h-3.729a.66.66,0,0,1-.66-.66.659.659,0,0,1,.66-.66h3.729a3.3,3.3,0,0,1,3.3,3.3v8.835a3.3,3.3,0,0,1-3.3,3.3h-2.131l-4.048,4.046a.659.659,0,0,1-.466.194A.669.669,0,0,1-1742.062,26.851Zm-.626-9.779-1.839-1.839a.946.946,0,0,1,0-1.337.946.946,0,0,1,1.338,0l1.169,1.169,2.516-2.515a.946.946,0,0,1,1.337,0,.946.946,0,0,1,0,1.338l-3.184,3.183a.942.942,0,0,1-.669.277A.943.943,0,0,1-1742.689,17.071Zm-8.041-2.884V10.528a3.3,3.3,0,0,1,3.3-3.3h3.723a.659.659,0,0,1,.659.66.659.659,0,0,1-.659.66h-3.723a1.98,1.98,0,0,0-1.978,1.978v3.659a.659.659,0,0,1-.66.659A.659.659,0,0,1-1750.729,14.188Zm8.965-5.831a.666.666,0,0,1-.193-.466.665.665,0,0,1,.193-.466.664.664,0,0,1,.466-.194.661.661,0,0,1,.466.194.665.665,0,0,1,.193.466.666.666,0,0,1-.193.466.665.665,0,0,1-.466.193A.668.668,0,0,1-1741.765,8.357Z" transform="translate(1765.425 -7.231)" fill="url(#linear-gradient)"/>
</svg>
