<svg xmlns="http://www.w3.org/2000/svg" xmlns:xlink="http://www.w3.org/1999/xlink" width="72.971" height="72" viewBox="0 0 72.971 72">
  <defs>
    <linearGradient id="linear-gradient" x1="-0.049" y1="0.5" x2="0.652" y2="0.5" gradientUnits="objectBoundingBox">
      <stop offset="0" stop-color="#006897"/>
      <stop offset="1" stop-color="#009fb4"/>
    </linearGradient>
  </defs>
  <path id="Intersección_350" data-name="Intersección 350" d="M-1307.857,68.372l14.026-13.81a15.051,15.051,0,0,1,10.8-4.423,15.418,15.418,0,0,1,7.049,1.672,12.1,12.1,0,0,0,5.592.956s.972-.021,5.965-.021c2.878,0,6.1,1.667,6.1,5.209,0,3.334-3.221,5.209-6.1,5.209h-8.223a1.33,1.33,0,0,0-1.3,1.3,1.47,1.47,0,0,0,1.3,1.326l13.44,0s13.654-11.674,16.032-13.046,5.064-1.81,7.343-.266a2.283,2.283,0,0,1,.176,3.571l-17.859,20.035a10.723,10.723,0,0,1-7.121,2.706h-26.378L-1292.229,84Zm15.892-11.992-12.193,12.005,11.929,11.929,3.949-4.127,27.638,0a8.115,8.115,0,0,0,5.286-1.959l17.669-19.821a4.453,4.453,0,0,0-4.022.5c-1.237.678-16.578,13.467-16.578,13.467l-14.581,0a3.73,3.73,0,0,1-3.732-3.732,3.755,3.755,0,0,1,3.732-4.081h8.439c1.409,0,3.495-.828,3.495-2.6,0-2.576-3.461-2.6-3.495-2.6-4.967,0-5.965.021-5.965.021a14.322,14.322,0,0,1-6.821-1.265,12.923,12.923,0,0,0-5.819-1.357A12.487,12.487,0,0,0-1291.964,56.381Zm24.469-11.053-11.38-10.994a1.28,1.28,0,0,1-.042-1.8,1.279,1.279,0,0,1,1.8-.042l10.481,10.138,13.22-12.791a8.59,8.59,0,0,0,.664-.77h-7.638l-4.834,5.09a1.325,1.325,0,0,1-.941.385h-.213a1.269,1.269,0,0,1-.941-.727l-4.279-9.711-2.652,4.321a1.242,1.242,0,0,1-1.112.6h-8.942a1.261,1.261,0,0,1-1.283-1.283,1.261,1.261,0,0,1,1.283-1.283h8.214l3.551-5.819a1.255,1.255,0,0,1,1.2-.6,1.279,1.279,0,0,1,1.07.77L-1265.784,31l3.893-4.108a1.326,1.326,0,0,1,.941-.384h9.558a9.155,9.155,0,0,0,.495-2.952,9.041,9.041,0,0,0-2.567-6.332,7.367,7.367,0,0,0-5.3-2.182h-.043a9.753,9.753,0,0,0-6.888,2.994,1.319,1.319,0,0,1-1.925,0c-2.353-2.224-4.406-3.379-6.118-3.379a8.371,8.371,0,0,0-6.117,2.61,8.909,8.909,0,0,0-2.4,4.621,1.3,1.3,0,0,1-1.5,1.027,1.442,1.442,0,0,1-.984-1.626,11.576,11.576,0,0,1,3.08-5.9A10.862,10.862,0,0,1-1273.7,12c2.182,0,4.492,1.112,7.1,3.38a12.4,12.4,0,0,1,7.872-2.952h.042a10.031,10.031,0,0,1,7.145,2.952,11.641,11.641,0,0,1,3.294,8.129,11.674,11.674,0,0,1-3.294,8.129l-14.161,13.69a1.379,1.379,0,0,1-.9.343A1.377,1.377,0,0,1-1267.5,45.328Z" transform="translate(1307.857 -12.001)" fill="url(#linear-gradient)"/>
</svg>
