<svg id="Grupo_2434" data-name="Grupo 2434" xmlns="http://www.w3.org/2000/svg" width="21.049" height="21.049" viewBox="0 0 21.049 21.049">
  <path id="Trazado_3458" data-name="Trazado 3458" d="M85.038,64.764a.871.871,0,0,0-.054-.217.025.025,0,0,1,0-.006h0a.893.893,0,0,0-.119-.2c-.012-.014-.023-.028-.035-.042a.892.892,0,0,0-.168-.151l-.006,0a.863.863,0,0,0-.2-.095l-.053-.016A.875.875,0,0,0,84.172,64H78.033a.877.877,0,1,0,0,1.754h4.022L76.82,70.989a7.9,7.9,0,1,0,1.24,1.241l5.235-5.235v4.022a.877.877,0,1,0,1.754,0V64.877c0-.018,0-.036-.005-.054s0-.039-.006-.059ZM71.893,83.295a6.143,6.143,0,1,1,6.139-6.139,6.146,6.146,0,0,1-6.139,6.139Zm0,0" transform="translate(-64 -64)"/>
</svg>
