<svg xmlns="http://www.w3.org/2000/svg" xmlns:xlink="http://www.w3.org/1999/xlink" width="11.667" height="17.358" viewBox="0 0 11.667 17.358">
  <defs>
    <linearGradient id="linear-gradient" x1="-0.049" y1="0.5" x2="0.652" y2="0.5" gradientUnits="objectBoundingBox">
      <stop offset="0" stop-color="#006897"/>
      <stop offset="1" stop-color="#009fb4"/>
    </linearGradient>
  </defs>
  <path id="Intersección_433" data-name="Intersección 433" d="M-3995.671,21.205a1.556,1.556,0,0,1-1.316-.745,1.766,1.766,0,0,1-.151-1.574l2.508-6.486a0,0,0,0,0,0,0l.951-2.459a4.3,4.3,0,0,0,.288-1.557V6.017a.98.98,0,0,0-.262-.673,1.2,1.2,0,0,1-.322-.823V4.185a.33.33,0,0,1,.32-.339h4.462a.33.33,0,0,1,.32.339V4.52a1.2,1.2,0,0,1-.322.823.98.98,0,0,0-.263.673V8.382a4.3,4.3,0,0,0,.29,1.557l3.459,8.948a1.766,1.766,0,0,1-.15,1.574,1.557,1.557,0,0,1-1.317.745Zm-.786-1.122a.92.92,0,0,0,.786.444h8.5a.92.92,0,0,0,.786-.444,1.043,1.043,0,0,0,.09-.94l-2.427-6.274h-5.4l-.367.949h.308a.329.329,0,0,1,.32.339.33.33,0,0,1-.32.34h-.569l-.368.95h.292a.328.328,0,0,1,.32.338.33.33,0,0,1-.32.34h-.554l-.368.949h.277a.33.33,0,0,1,.32.34.33.33,0,0,1-.32.339h-.539l-.367.949h.292a.33.33,0,0,1,.32.34.329.329,0,0,1-.32.339h-.526A1.049,1.049,0,0,0-3996.458,20.083Zm3.258-15.221a1.673,1.673,0,0,1,.449,1.154V8.382a5.024,5.024,0,0,1-.337,1.814l-.771,2h4.87l-.771-2a5.024,5.024,0,0,1-.337-1.814V6.017a1.676,1.676,0,0,1,.449-1.154.491.491,0,0,0,.135-.339h-3.823A.491.491,0,0,0-3993.2,4.863ZM-3988.33,18l-1.144-2.959a.346.346,0,0,1,.174-.442.316.316,0,0,1,.418.185l1.144,2.96a.347.347,0,0,1-.175.442.306.306,0,0,1-.121.025A.322.322,0,0,1-3988.33,18Z" transform="translate(3997.256 -3.847)" fill="url(#linear-gradient)"/>
</svg>
