<svg xmlns="http://www.w3.org/2000/svg" xmlns:xlink="http://www.w3.org/1999/xlink" width="36.132" height="31.957" viewBox="0 0 36.132 31.957">
  <defs>
    <linearGradient id="linear-gradient" x1="-0.049" y1="0.5" x2="0.652" y2="0.5" gradientUnits="objectBoundingBox">
      <stop offset="0" stop-color="#006897"/>
      <stop offset="1" stop-color="#009fb4"/>
    </linearGradient>
  </defs>
  <path id="Intersección_349" data-name="Intersección 349" d="M-1760.709,34.8A15,15,0,0,1-1766,23.5a15.015,15.015,0,0,1,5.291-11.3,19.206,19.206,0,0,1,12.776-4.684,19.207,19.207,0,0,1,12.776,4.684,14.656,14.656,0,0,1,1.2,21.425,6.308,6.308,0,0,0,2.846,2.911,1.463,1.463,0,0,1,.924,1.559,1.593,1.593,0,0,1-1.409,1.252,9.773,9.773,0,0,1-1.279.086,12.761,12.761,0,0,1-6.494-1.86,20,20,0,0,1-8.561,1.9A19.2,19.2,0,0,1-1760.709,34.8Zm1.445-21.332a13.058,13.058,0,0,0,0,20.048,17.044,17.044,0,0,0,11.331,4.148,17.664,17.664,0,0,0,8.114-1.947,1.152,1.152,0,0,1,.515-.128,1.164,1.164,0,0,1,.628.187,10.584,10.584,0,0,0,5.669,1.84,9.26,9.26,0,0,1-3.1-3.781.828.828,0,0,1,.175-.963,13.02,13.02,0,0,0-.674-19.4,17.044,17.044,0,0,0-11.331-4.148A17.044,17.044,0,0,0-1759.263,13.464Zm3.768,15.386a1.016,1.016,0,0,1-1.021-1.021,1.021,1.021,0,0,1,1.021-1.021h15.125a1.017,1.017,0,0,1,1.021,1.021,1.017,1.017,0,0,1-1.021,1.021Zm0-4.335a1.016,1.016,0,0,1-1.021-1.021,1.022,1.022,0,0,1,1.021-1.021h15.125a1.018,1.018,0,0,1,1.021,1.021,1.017,1.017,0,0,1-1.021,1.021Zm0-4.335a1.016,1.016,0,0,1-1.021-1.021,1.021,1.021,0,0,1,1.021-1.021h15.125a1.017,1.017,0,0,1,1.021,1.021,1.017,1.017,0,0,1-1.021,1.021Z" transform="translate(1766 -7.516)" fill="url(#linear-gradient)"/>
</svg>
