<svg id="Grupo_2605" data-name="Grupo 2605" xmlns="http://www.w3.org/2000/svg" width="14" height="14" viewBox="0 0 14 14">
  <path id="Trazado_1981" data-name="Trazado 1981" d="M78.872,1693.246h0L74.625,1689l4.247-4.246h0a.468.468,0,0,0,.1-.157.438.438,0,0,0-.1-.462l-2.007-2.006a.433.433,0,0,0-.462-.1.413.413,0,0,0-.156.1h0L72,1686.375l-4.248-4.246h0a.41.41,0,0,0-.155-.1.437.437,0,0,0-.463.1l-2.007,2.006a.436.436,0,0,0-.1.462.452.452,0,0,0,.1.157h0L69.375,1689l-4.248,4.246h0a.45.45,0,0,0-.1.156.438.438,0,0,0,.1.462l2.007,2.006a.435.435,0,0,0,.463.1.411.411,0,0,0,.155-.1h0L72,1691.625l4.247,4.246h0a.414.414,0,0,0,.156.1.435.435,0,0,0,.462-.1l2.007-2.006a.435.435,0,0,0,.1-.462A.466.466,0,0,0,78.872,1693.246Z" transform="translate(-65 -1682)" fill="#131313"/>
</svg>
