<svg id="Grupo_2209" data-name="Grupo 2209" xmlns="http://www.w3.org/2000/svg" xmlns:xlink="http://www.w3.org/1999/xlink" width="12.513" height="14.734" viewBox="0 0 12.513 14.734">
  <defs>
    <clipPath id="clip-path">
      <rect id="Rectángulo_106" data-name="Rectángulo 106" width="12.513" height="14.734" fill="#005e94"/>
    </clipPath>
  </defs>
  <g id="Grupo_2095" data-name="Grupo 2095" transform="translate(0 0)">
    <g id="Grupo_2094" data-name="Grupo 2094" clip-path="url(#clip-path)">
      <path id="Trazado_8" data-name="Trazado 8" d="M572.334,294.3h.1a2.8,2.8,0,0,0,2.141-.926,5.557,5.557,0,0,0,.954-3.793,3.1,3.1,0,0,0-1.473-2.755,3.378,3.378,0,0,0-1.634-.428h-.052a3.383,3.383,0,0,0-1.634.416,3.1,3.1,0,0,0-1.491,2.767,5.555,5.555,0,0,0,.954,3.793,2.791,2.791,0,0,0,2.138.926Zm-2.281-4.644c0-.009,0-.018,0-.024a2.209,2.209,0,0,1,2.308-2.412h.037a2.22,2.22,0,0,1,2.308,2.412.063.063,0,0,0,0,.024,4.81,4.81,0,0,1-.75,3.174,1.991,1.991,0,0,1-1.564.65h-.03a1.984,1.984,0,0,1-1.561-.65,4.836,4.836,0,0,1-.753-3.174Zm0,0" transform="translate(-566.148 -286.367)" fill="#005e94"/>
      <path id="Trazado_9" data-name="Trazado 9" d="M540.5,395.884v-.009c0-.024,0-.049,0-.076a2.382,2.382,0,0,0-1.376-2.457l-.03-.009a8.773,8.773,0,0,1-2.521-1.148.41.41,0,1,0-.471.671,9.457,9.457,0,0,0,2.773,1.266c.708.252.787,1.008.808,1.7a.617.617,0,0,0,0,.076,5.533,5.533,0,0,1-.064.939,12.129,12.129,0,0,1-10.712,0,5.228,5.228,0,0,1-.064-.938c0-.024,0-.049,0-.076.021-.693.1-1.449.808-1.7a9.548,9.548,0,0,0,2.773-1.266.41.41,0,1,0-.471-.671,8.664,8.664,0,0,1-2.521,1.148l-.03.009a2.386,2.386,0,0,0-1.376,2.457.631.631,0,0,1,0,.076v.009a4.665,4.665,0,0,0,.155,1.376.389.389,0,0,0,.158.191,12.83,12.83,0,0,0,11.857,0,.406.406,0,0,0,.158-.191,4.892,4.892,0,0,0,.146-1.373Zm0,0" transform="translate(-528.027 -384.205)" fill="#005e94"/>
    </g>
  </g>
</svg>
