<svg id="Grupo_3654" data-name="Grupo 3654" xmlns="http://www.w3.org/2000/svg" xmlns:xlink="http://www.w3.org/1999/xlink" width="13.788" height="16.235" viewBox="0 0 13.788 16.235">
  <defs>
    <clipPath id="clip-path">
      <rect id="Rectángulo_106" data-name="Rectángulo 106" width="13.788" height="16.235"/>
    </clipPath>
  </defs>
  <g id="Grupo_2095" data-name="Grupo 2095" transform="translate(0 0)">
    <g id="Grupo_2094" data-name="Grupo 2094" clip-path="url(#clip-path)">
      <path id="Trazado_8" data-name="Trazado 8" d="M572.652,295.1h.107a3.088,3.088,0,0,0,2.359-1.021c1.288-1.452,1.074-3.942,1.051-4.18a3.415,3.415,0,0,0-1.623-3.035,3.722,3.722,0,0,0-1.8-.472h-.057a3.728,3.728,0,0,0-1.8.458,3.416,3.416,0,0,0-1.643,3.049c-.024.238-.237,2.727,1.051,4.18a3.075,3.075,0,0,0,2.356,1.021Zm-2.513-5.117c0-.01,0-.02,0-.027a2.434,2.434,0,0,1,2.543-2.657h.04a2.447,2.447,0,0,1,2.543,2.657.069.069,0,0,0,0,.027c0,.023.238,2.3-.826,3.5a2.193,2.193,0,0,1-1.723.716h-.034a2.186,2.186,0,0,1-1.72-.716c-1.061-1.192-.833-3.477-.83-3.5Zm0,0" transform="translate(-565.835 -286.364)"/>
      <path id="Trazado_9" data-name="Trazado 9" d="M541.774,396.268v-.01c0-.027,0-.054,0-.084-.02-.663-.063-2.212-1.516-2.707l-.034-.01a9.666,9.666,0,0,1-2.778-1.265.452.452,0,1,0-.519.74,10.421,10.421,0,0,0,3.055,1.4c.78.278.867,1.111.89,1.874a.681.681,0,0,0,0,.084,6.1,6.1,0,0,1-.07,1.034,13.364,13.364,0,0,1-11.8,0,5.761,5.761,0,0,1-.07-1.034c0-.027,0-.053,0-.084.024-.763.111-1.6.89-1.874a10.52,10.52,0,0,0,3.055-1.4.452.452,0,1,0-.519-.74,9.548,9.548,0,0,1-2.778,1.265l-.034.01c-1.452.5-1.5,2.048-1.516,2.707a.693.693,0,0,1,0,.084v.01a5.141,5.141,0,0,0,.171,1.516.429.429,0,0,0,.174.211,14.137,14.137,0,0,0,13.065,0,.448.448,0,0,0,.174-.211,5.391,5.391,0,0,0,.161-1.513Zm0,0" transform="translate(-528.027 -383.4)"/>
    </g>
  </g>
</svg>
