<svg xmlns="http://www.w3.org/2000/svg" xmlns:xlink="http://www.w3.org/1999/xlink" width="60.591" height="55.536" viewBox="0 0 60.591 55.536">
  <defs>
    <linearGradient id="linear-gradient" x1="-0.049" y1="0.5" x2="0.652" y2="0.5" gradientUnits="objectBoundingBox">
      <stop offset="0" stop-color="#006897"/>
      <stop offset="1" stop-color="#009fb4"/>
    </linearGradient>
  </defs>
  <g id="Grupo_3696" data-name="Grupo 3696" transform="translate(-156.945 -269)">
    <path id="Intersección_498" data-name="Intersección 498" d="M-7093.512,62.73a13.585,13.585,0,0,1-13.543-13.595v-21a.874.874,0,0,1,.872-.876.876.876,0,0,1,.874.876v21a11.833,11.833,0,0,0,11.8,11.842h22.463a11.743,11.743,0,0,0,9.971-5.507.872.872,0,0,1,1.2-.27.879.879,0,0,1,.27,1.21,13.483,13.483,0,0,1-11.445,6.32Zm3.279-6.8a3.659,3.659,0,0,1-.715-4.213l2.486-5.178a19.663,19.663,0,0,1,3.815-5.4l5.414-5.434H-7095.9a.875.875,0,0,1-.874-.876.876.876,0,0,1,.874-.877h18.411l4.185-4.2h-22.6a.874.874,0,0,1-.874-.876A.874.874,0,0,1-7095.9,28h24.341l9.283-9.317a11.7,11.7,0,0,0-8.775-3.928h-22.463a11.8,11.8,0,0,0-7.462,2.668,11.89,11.89,0,0,0-4.073,6.672.875.875,0,0,1-.852.693.952.952,0,0,1-.186-.02.876.876,0,0,1-.668-1.042,13.641,13.641,0,0,1,4.676-7.66A13.532,13.532,0,0,1-7093.512,13h22.463a13.44,13.44,0,0,1,10.012,4.44l3.159-3.17a4.312,4.312,0,0,1,6.108,0l3.043,3.054a4.332,4.332,0,0,1,1.263,3.027v.075a4.339,4.339,0,0,1-1.263,3.029l-6.351,6.372,0,0-2.425,2.436V49.136a13.737,13.737,0,0,1-.391,3.256.875.875,0,0,1-.847.667.938.938,0,0,1-.209-.025.879.879,0,0,1-.64-1.06,11.9,11.9,0,0,0,.341-2.838V34.015L-7075.5,50.32a19.694,19.694,0,0,1-5.376,3.829l-2.659,1.283-2.5,1.21a3.681,3.681,0,0,1-1.61.373A3.628,3.628,0,0,1-7090.233,55.926Zm.858-3.452a1.905,1.905,0,0,0,.375,2.214,1.888,1.888,0,0,0,2.207.377l1.529-.74a21.607,21.607,0,0,0-1.592-1.787,21.384,21.384,0,0,0-1.782-1.6Zm2.485-5.18-.972,2.028a23.182,23.182,0,0,1,2.239,1.976,23.237,23.237,0,0,1,1.971,2.248l2.019-.976a17.933,17.933,0,0,0,3.856-2.52l-6.6-6.626A17.885,17.885,0,0,0-7086.89,47.293Zm3.706-5.15,6.681,6.708,19.574-19.645-6.683-6.706Zm20.807-20.882,6.683,6.706,2.155-2.162-6.681-6.708Zm5.734-5.754-2.344,2.352,6.683,6.706,2.343-2.352a2.59,2.59,0,0,0,0-3.652L-7053,15.508a2.558,2.558,0,0,0-1.819-.756A2.555,2.555,0,0,0-7056.643,15.508Zm-17.56,24.33a.879.879,0,0,1,0-1.24l6.654-6.679a.873.873,0,0,1,1.235,0,.879.879,0,0,1,0,1.24l-6.656,6.679a.865.865,0,0,1-.617.257A.864.864,0,0,1-7074.2,39.839ZM-7095.9,23.8a.874.874,0,0,1-.874-.876.876.876,0,0,1,.874-.877h27.236a.874.874,0,0,1,.872.877.873.873,0,0,1-.872.876Z" transform="translate(7264 256)" fill="url(#linear-gradient)"/>
    <g id="check" transform="translate(191 298)">
      <path id="Trazado_3792" data-name="Trazado 3792" d="M13.268,0A13.268,13.268,0,1,1,0,13.268H0A13.23,13.23,0,0,1,13.193,0Z" fill="#3bb54a"/>
      <path id="Trazado_3793" data-name="Trazado 3793" d="M96.725,106.079,87.3,115.5l-5.277-5.239,2.149-2.111,3.128,3.091,7.275-7.275Z" transform="translate(-76.107 -96.467)" fill="#fff"/>
    </g>
  </g>
</svg>
