<svg id="Grupo_2201" data-name="Grupo 2201" xmlns="http://www.w3.org/2000/svg" width="10.666" height="14.221" viewBox="0 0 10.666 14.221">
  <path id="Trazado_1928" data-name="Trazado 1928" d="M83.7,323.888h-.889V322.7a4.148,4.148,0,0,0-8.3,0v1.185h-.889a.3.3,0,0,0-.3.3v7.407a1.186,1.186,0,0,0,1.185,1.185h8.3A1.186,1.186,0,0,0,84,331.591v-7.407a.3.3,0,0,0-.3-.3ZM75.111,322.7a3.555,3.555,0,1,1,7.11,0v1.185h-.593V322.7a2.963,2.963,0,1,0-5.925,0v1.185h-.593Zm5.925,0v1.185H76.3V322.7a2.37,2.37,0,1,1,4.74,0Zm2.371,8.888a.593.593,0,0,1-.593.593h-8.3a.593.593,0,0,1-.593-.593v-7.11h9.481Zm0,0" transform="translate(-73.333 -318.556)" fill="#005e94"/>
</svg>
