<svg xmlns="http://www.w3.org/2000/svg" width="17.571" height="17.57" viewBox="0 0 17.571 17.57">
  <g id="technical-support" transform="translate(-12.716 -12.718)">
    <path id="Trazado_3765" data-name="Trazado 3765" d="M80.778,91.087a.483.483,0,0,0,.483.483h3.018a.483.483,0,0,0,.483-.483v-.936a7.559,7.559,0,0,0,1.812-.751l.661.661a.483.483,0,0,0,.683,0l2.133-2.135a.483.483,0,0,0,0-.683l-.66-.66a7.56,7.56,0,0,0,.751-1.812h.932a.483.483,0,0,0,.483-.483V81.271a.483.483,0,0,0-.483-.483h-.932a7.56,7.56,0,0,0-.751-1.811l.656-.656a.483.483,0,0,0,0-.683L87.911,75.5a.483.483,0,0,0-.683,0l-.655.656a7.559,7.559,0,0,0-1.812-.751v-.927A.483.483,0,0,0,84.279,74H81.261a.483.483,0,0,0-.483.483v.927a7.552,7.552,0,0,0-1.811.751l-.656-.656a.483.483,0,0,0-.683,0l-2.135,2.133a.483.483,0,0,0,0,.683l.656.656a7.558,7.558,0,0,0-.751,1.811h-.93a.483.483,0,0,0-.483.482l0,3.018a.482.482,0,0,0,.483.483H75.4a7.559,7.559,0,0,0,.751,1.812l-.66.66a.483.483,0,0,0,0,.683l2.133,2.135a.483.483,0,0,0,.341.142h0a.483.483,0,0,0,.341-.141l.66-.661a7.565,7.565,0,0,0,1.812.751Zm-1.622-2.7a.483.483,0,0,0-.6.064l-.588.588-1.451-1.452L77.1,87a.483.483,0,0,0,.064-.6,6.607,6.607,0,0,1-.914-2.207.483.483,0,0,0-.472-.381H74.95V81.754h.828a.483.483,0,0,0,.472-.381,6.608,6.608,0,0,1,.914-2.206.483.483,0,0,0-.064-.6l-.583-.584,1.452-1.451.583.583a.483.483,0,0,0,.6.064,6.6,6.6,0,0,1,2.206-.914.483.483,0,0,0,.381-.472v-.824H83.8v.824a.482.482,0,0,0,.381.472,6.61,6.61,0,0,1,2.206.914.482.482,0,0,0,.6-.064l.583-.583,1.452,1.451-.583.583a.483.483,0,0,0-.064.6,6.611,6.611,0,0,1,.914,2.206.482.482,0,0,0,.472.381h.829v2.053h-.829a.483.483,0,0,0-.472.381,6.606,6.606,0,0,1-.914,2.206.483.483,0,0,0,.064.6l.587.587-1.451,1.452-.588-.588a.483.483,0,0,0-.6-.064,6.612,6.612,0,0,1-2.206.914.483.483,0,0,0-.381.472V90.6H81.743v-.833a.483.483,0,0,0-.381-.472A6.608,6.608,0,0,1,79.156,88.385Zm0,0" transform="translate(-61.268 -61.282)"/>
    <path id="Trazado_3766" data-name="Trazado 3766" d="M181.348,177.36a3.988,3.988,0,1,0-3.988,3.988A3.993,3.993,0,0,0,181.348,177.36Zm-7.011,0a3.023,3.023,0,1,1,3.023,3.023A3.026,3.026,0,0,1,174.337,177.36Zm0,0" transform="translate(-155.858 -155.856)"/>
  </g>
</svg>
