<svg xmlns="http://www.w3.org/2000/svg" xmlns:xlink="http://www.w3.org/1999/xlink" width="28.974" height="28.973" viewBox="0 0 28.974 28.973">
  <defs>
    <linearGradient id="linear-gradient" x1="-0.049" y1="0.5" x2="0.652" y2="0.5" gradientUnits="objectBoundingBox">
      <stop offset="0" stop-color="#006897"/>
      <stop offset="1" stop-color="#009fb4"/>
    </linearGradient>
  </defs>
  <path id="Intersección_351" data-name="Intersección 351" d="M-1761.888,35.973a3.1,3.1,0,0,1-2.084-.8c-.018-.015-.035-.032-.052-.049a3.1,3.1,0,0,1-.976-2.26V18.491h0v0a.646.646,0,0,1,0-.072.124.124,0,0,1,0-.019c0-.019,0-.037.008-.056a.153.153,0,0,1,0-.021c0-.022.01-.044.016-.066,0,0,0,0,0-.007.007-.023.014-.044.023-.066s.006-.016.01-.024.013-.029.02-.043.008-.017.013-.025.022-.039.033-.058l.014-.022.03-.041.016-.021c.015-.018.031-.036.047-.053l0,0c.017-.018.036-.034.055-.051l.007-.006,1.447-1.2V12.942a1.983,1.983,0,0,1,1.981-1.98h4.854l3.911-3.245a3.114,3.114,0,0,1,3.975,0l3.91,3.245h4.854a1.983,1.983,0,0,1,1.981,1.98v3.692l1.447,1.2.007.006a.735.735,0,0,1,.055.051l0,0c.016.017.032.035.046.053a.2.2,0,0,1,.017.021l.03.041.014.021c.012.02.023.039.033.059l.013.025c.007.014.013.029.02.043a.254.254,0,0,1,.01.024.546.546,0,0,1,.022.066.021.021,0,0,1,0,.006c.006.022.012.044.016.067a.153.153,0,0,1,0,.021.546.546,0,0,1,.008.056.141.141,0,0,1,0,.019.646.646,0,0,1,0,.072v0h0V32.861a3.1,3.1,0,0,1-.976,2.26.662.662,0,0,1-.051.049,3.1,3.1,0,0,1-2.084.8Zm.324-1.7h22.1l-8.275-5.671-.788.655a3.115,3.115,0,0,1-3.975,0l-.788-.655Zm23.475-13.677h0l-8.288,6.879,8.567,5.871a1.4,1.4,0,0,0,.087-.488V20.3ZM-1763.3,32.861a1.393,1.393,0,0,0,.087.488l8.567-5.871-8.288-6.879h0l-.365-.3Zm1.754-19.919v6.6l.481.4,9.652,8.009a1.414,1.414,0,0,0,1.806,0l9.652-8.009.481-.4v-6.6a.283.283,0,0,0-.283-.283h-21.5A.283.283,0,0,0-1761.548,12.942Zm10.132-3.919-2.336,1.939h6.479l-2.336-1.939a1.413,1.413,0,0,0-.9-.326A1.411,1.411,0,0,0-1751.416,9.023Zm-5.294,11.557a.848.848,0,0,1-.821-.636.87.87,0,0,1-.028-.212.849.849,0,0,1,.849-.849h12.394a.849.849,0,0,1,.849.849.87.87,0,0,1-.028.212.848.848,0,0,1-.821.636Zm0-3.395a.849.849,0,0,1-.849-.849.849.849,0,0,1,.849-.849h8.036a.849.849,0,0,1,.849.849.849.849,0,0,1-.849.849Z" transform="translate(1765 -7)" fill="url(#linear-gradient)"/>
</svg>
