<svg xmlns="http://www.w3.org/2000/svg" xmlns:xlink="http://www.w3.org/1999/xlink" width="13.333" height="13.331" viewBox="0 0 13.333 13.331">
  <defs>
    <linearGradient id="linear-gradient" x1="-0.049" y1="0.5" x2="0.652" y2="0.5" gradientUnits="objectBoundingBox">
      <stop offset="0" stop-color="#006897"/>
      <stop offset="1" stop-color="#009fb4"/>
    </linearGradient>
  </defs>
  <path id="Intersección_442" data-name="Intersección 442" d="M-4888.889,18.887a.383.383,0,0,1-.108-.322l.565-4.187a.383.383,0,0,1,.108-.219l7.631-7.629a2.94,2.94,0,0,1,4.161,0,2.912,2.912,0,0,1,.864,2.08,2.92,2.92,0,0,1-.864,2.082l-7.63,7.628a.374.374,0,0,1-.271.114.386.386,0,0,1-.269-.114l-3.075-3.074-.395,2.921,2.023-.274a.384.384,0,0,1,.431.33.383.383,0,0,1-.329.431l-2.523.342a.345.345,0,0,1-.05,0A.393.393,0,0,1-4888.889,18.887Zm3.208-2.631,1.253,1.253,6.963-6.963-1.253-1.253Zm-1.827-1.823,1.281,1.28,6.963-6.963-1.281-1.28Zm7.511-7.5,3.065,3.066a2.161,2.161,0,0,0,.5-1.387,2.154,2.154,0,0,0-.636-1.539,2.17,2.17,0,0,0-1.54-.636A2.17,2.17,0,0,0-4880,6.931Z" transform="translate(4889 -5.668)" fill="url(#linear-gradient)"/>
</svg>
