<svg xmlns="http://www.w3.org/2000/svg" xmlns:xlink="http://www.w3.org/1999/xlink" width="16.333" height="16.84" viewBox="0 0 16.333 16.84">
  <defs>
    <linearGradient id="linear-gradient" x1="-0.049" y1="0.5" x2="0.652" y2="0.5" gradientUnits="objectBoundingBox">
      <stop offset="0" stop-color="#006897"/>
      <stop offset="1" stop-color="#009fb4"/>
    </linearGradient>
  </defs>
  <path id="Intersección_440" data-name="Intersección 440" d="M1.36,16.84A1.384,1.384,0,0,1,0,15.435V2.981a1.385,1.385,0,0,1,1.36-1.4H3.574V.527a.51.51,0,1,1,1.019,0v1.05H7.656V.527a.511.511,0,1,1,1.022,0v1.05h3.059V.527a.511.511,0,1,1,1.022,0v1.05h2.213a1.385,1.385,0,0,1,1.362,1.4V15.435a1.384,1.384,0,0,1-1.362,1.4ZM1.022,2.981V15.435a.345.345,0,0,0,.338.352H14.972a.345.345,0,0,0,.34-.352V2.981a.345.345,0,0,0-.34-.349H12.759V3.685a.511.511,0,1,1-1.022,0V2.631H8.678V3.685a.511.511,0,1,1-1.022,0V2.631H4.593V3.685a.51.51,0,1,1-1.019,0V2.631H1.36A.345.345,0,0,0,1.022,2.981ZM11.05,13.062V11.873h1.6v1.189Zm-3.685,0V11.873h1.6v1.189Zm-3.681,0V11.873h1.6v1.189Zm7.366-2.7V9.175h1.6v1.189Zm-3.685,0V9.175h1.6v1.189Zm-3.681,0V9.175h1.6v1.189Zm7.366-2.7V6.476h1.6v1.19Zm-3.685,0V6.476h1.6v1.19Zm-3.681,0V6.476h1.6v1.19Z" fill="url(#linear-gradient)"/>
</svg>
