<svg xmlns="http://www.w3.org/2000/svg" xmlns:xlink="http://www.w3.org/1999/xlink" width="33.339" height="33.34" viewBox="0 0 33.339 33.34">
  <defs>
    <clipPath id="clip-path">
      <path id="Intersección_342" data-name="Intersección 342" d="M-1805.253,42.84a1.955,1.955,0,0,1-1.954-1.953V11.454a1.956,1.956,0,0,1,1.954-1.954h23.7a1.956,1.956,0,0,1,1.953,1.954v7.081a.651.651,0,0,1-.651.651.651.651,0,0,1-.652-.651V11.454a.652.652,0,0,0-.651-.652h-23.7a.653.653,0,0,0-.652.652V40.887a.652.652,0,0,0,.652.651h23.7a.651.651,0,0,0,.651-.651v-4.8a.651.651,0,0,1,.652-.651.651.651,0,0,1,.651.651v4.8a1.955,1.955,0,0,1-1.953,1.953Zm17.75-3.6a.653.653,0,0,1-.322-.636l.577-5.167a.649.649,0,0,1,.084-.253l8.194-14.193a2.715,2.715,0,0,1,1.661-1.274,2.721,2.721,0,0,1,2.075.273,2.739,2.739,0,0,1,1,3.737l-8.195,14.193a.654.654,0,0,1-.177.2l-4.186,3.083a.655.655,0,0,1-.387.127A.647.647,0,0,1-1787.5,39.237Zm1.138-1.971,2.186-1.61-1.885-1.088Zm.654-4,2.481,1.433,6.575-11.39-2.481-1.432Zm8.738-14.3a1.422,1.422,0,0,0-.869.667l-.642,1.111,2.481,1.433.642-1.111a1.426,1.426,0,0,0,.143-1.087,1.421,1.421,0,0,0-.668-.869,1.42,1.42,0,0,0-.714-.194A1.393,1.393,0,0,0-1776.974,18.972ZM-1793.4,39.324a.651.651,0,0,1-.652-.651.651.651,0,0,1,.652-.652h3.516a.651.651,0,0,1,.651.652.651.651,0,0,1-.651.651Zm-5.73-3.646a.651.651,0,0,1-.652-.651.651.651,0,0,1,.652-.652h9.246a.651.651,0,0,1,.652.652.651.651,0,0,1-.652.651Zm-3.243-.191a.654.654,0,0,1-.191-.46.655.655,0,0,1,.191-.461.655.655,0,0,1,.461-.191.657.657,0,0,1,.461.191.659.659,0,0,1,.191.461.658.658,0,0,1-.191.46.655.655,0,0,1-.461.191A.653.653,0,0,1-1802.375,35.487Zm3.243-3.456a.651.651,0,0,1-.652-.651.651.651,0,0,1,.652-.652h9.246a.651.651,0,0,1,.652.652.651.651,0,0,1-.652.651Zm-3.243-.191a.654.654,0,0,1-.191-.46.655.655,0,0,1,.191-.461.655.655,0,0,1,.461-.191.657.657,0,0,1,.461.191.659.659,0,0,1,.191.461.658.658,0,0,1-.191.46.657.657,0,0,1-.461.191A.655.655,0,0,1-1802.375,31.84Zm3.243-3.456a.651.651,0,0,1-.652-.651.651.651,0,0,1,.652-.652h9.246a.651.651,0,0,1,.652.652.651.651,0,0,1-.652.651Zm-3.243-.191a.654.654,0,0,1-.191-.46.655.655,0,0,1,.191-.461.653.653,0,0,1,.461-.191.655.655,0,0,1,.461.191.659.659,0,0,1,.191.461.658.658,0,0,1-.191.46.657.657,0,0,1-.461.191A.655.655,0,0,1-1802.375,28.193Zm4.932-4.766a.672.672,0,0,1-.069-.065,5.976,5.976,0,0,1-1.881-4.355,6,6,0,0,1,5.99-5.99,6,6,0,0,1,5.991,5.99,5.976,5.976,0,0,1-1.881,4.355.694.694,0,0,1-.07.065A5.966,5.966,0,0,1-1793.4,25,5.968,5.968,0,0,1-1797.443,23.427Zm1.209-.686a4.665,4.665,0,0,0,2.831.955,4.665,4.665,0,0,0,2.832-.955,3.235,3.235,0,0,0-2.832-1.65A3.234,3.234,0,0,0-1796.234,22.741Zm5.176-4.417v.423a2.338,2.338,0,0,1-.49,1.432,4.513,4.513,0,0,1,1.918,1.608,4.663,4.663,0,0,0,.916-2.78,4.694,4.694,0,0,0-4.689-4.688,4.694,4.694,0,0,0-4.688,4.688,4.669,4.669,0,0,0,.915,2.78,4.516,4.516,0,0,1,1.919-1.608,2.332,2.332,0,0,1-.49-1.432v-.423a2.346,2.346,0,0,1,2.344-2.345A2.346,2.346,0,0,1-1791.059,18.324Zm-3.386,0v.423a1.043,1.043,0,0,0,1.041,1.042,1.043,1.043,0,0,0,1.042-1.042v-.423a1.043,1.043,0,0,0-1.042-1.042A1.043,1.043,0,0,0-1794.444,18.324Z" transform="translate(1852 222)"/>
    </clipPath>
    <linearGradient id="linear-gradient" x1="-0.049" y1="0.5" x2="0.652" y2="0.5" gradientUnits="objectBoundingBox">
      <stop offset="0" stop-color="#006897"/>
      <stop offset="1" stop-color="#009fb4"/>
    </linearGradient>
    <filter id="Rectángulo_742" x="-23.793" y="-14.5" width="80" height="67" filterUnits="userSpaceOnUse">
      <feOffset dy="3" input="SourceAlpha"/>
      <feGaussianBlur stdDeviation="3" result="blur"/>
      <feFlood flood-opacity="0.161"/>
      <feComposite operator="in" in2="blur"/>
      <feComposite in="SourceGraphic"/>
    </filter>
  </defs>
  <g id="Enmascarar_grupo_4" data-name="Enmascarar grupo 4" transform="translate(-44.793 -231.5)" clip-path="url(#clip-path)">
    <g transform="matrix(1, 0, 0, 1, 44.79, 231.5)" filter="url(#Rectángulo_742)">
      <rect id="Rectángulo_742-2" data-name="Rectángulo 742" width="62" height="49" transform="translate(-14.79 -8.5)" fill="url(#linear-gradient)"/>
    </g>
  </g>
</svg>
