<svg xmlns="http://www.w3.org/2000/svg" width="25.59" height="23.73" viewBox="0 0 25.59 23.73">
  <path id="_002-map" data-name="002-map" d="M25.4,2.088a.462.462,0,0,0-.419-.064l-8.249,2.75L8.947,2.943a.4.4,0,0,0-.058,0,.473.473,0,0,0-.149,0L.364,4.8A.465.465,0,0,0,0,5.257V25.264a.466.466,0,0,0,.465.465.5.5,0,0,0,.1-.011l8.285-1.841,7.818,1.38a.433.433,0,0,0,.081.007.467.467,0,0,0,.164-.031h0l8.375-3.257a.467.467,0,0,0,.3-.434V2.465A.465.465,0,0,0,25.4,2.088ZM.931,5.63,8.375,3.976V23.03L.931,24.684ZM9.306,3.983l6.979,1.642V24.244L9.306,23.013ZM24.66,21.224l-7.445,2.895V5.592L24.66,3.111Z" transform="translate(0 -2)"/>
</svg>
