<svg xmlns="http://www.w3.org/2000/svg" width="42.357" height="56.476" viewBox="0 0 42.357 56.476">
  <g id="Grupo_3648" data-name="Grupo 3648" transform="translate(-151.393 -306)">
    <g id="Grupo_3053" data-name="Grupo 3053" transform="translate(-56 -127)">
      <g id="Grupo_3048" data-name="Grupo 3048" transform="translate(207.393 433)">
        <path id="Trazado_304" data-name="Trazado 304" d="M3467.572,422a21.176,21.176,0,0,0-21.178,21.179c0,21.179,21.178,35.3,21.178,35.3s21.178-14.118,21.178-35.3A21.179,21.179,0,0,0,3467.572,422Zm0,24.709a7.061,7.061,0,1,1,7.061-7.061A7.057,7.057,0,0,1,3467.572,446.71Z" transform="translate(-3446.394 -422)" fill="#4b44ce"/>
      </g>
      <ellipse id="Elipse_18" data-name="Elipse 18" cx="15.5" cy="15" rx="15.5" ry="15" transform="translate(213 439)" fill="#fff"/>
    </g>
    <g id="hospital" transform="translate(163 295.261)">
      <path id="Trazado_3749" data-name="Trazado 3749" d="M18.2,29.9l-7.8-7.671a1.74,1.74,0,0,0-2.427,0L.161,29.9a.538.538,0,0,0,.754.767l.607-.6V36.2a2.344,2.344,0,0,0,2.341,2.341H14.5A2.344,2.344,0,0,0,16.837,36.2V30.074l.607.6A.538.538,0,1,0,18.2,29.9ZM15.761,36.2A1.267,1.267,0,0,1,14.5,37.463H3.863A1.267,1.267,0,0,1,2.6,36.2V29.016L8.72,23a.648.648,0,0,1,.215-.14.661.661,0,0,1,.655.1A.648.648,0,0,1,9.639,23l6.122,6.017V36.2Z" transform="translate(0 0)"/>
      <path id="Trazado_3750" data-name="Trazado 3750" d="M149.924,182.518v1.731h-1.731a.538.538,0,0,0-.538.538v2.147a.538.538,0,0,0,.538.538h1.731V189.2a.538.538,0,0,0,.538.538h2.147a.538.538,0,0,0,.538-.538v-1.731h1.731a.538.538,0,0,0,.538-.538v-2.147a.538.538,0,0,0-.538-.538h-1.731v-1.731a.538.538,0,0,0-.538-.538h-2.147A.538.538,0,0,0,149.924,182.518ZM151,184.787v-1.731h1.071v1.731a.538.538,0,0,0,.538.538h1.731V186.4h-1.731a.538.538,0,0,0-.538.538v1.731H151v-1.731a.538.538,0,0,0-.538-.538h-1.731v-1.071h1.731A.538.538,0,0,0,151,184.787Z" transform="translate(-142.361 -154.495)"/>
    </g>
  </g>
</svg>
